<?xml version="1.0" encoding="UTF-8" standalone="no"?><!DOCTYPE svg PUBLIC "-//W3C//DTD SVG 1.1//EN" "http://www.w3.org/Graphics/SVG/1.1/DTD/svg11.dtd"><svg width="100%" height="100%" viewBox="0 0 55 56" version="1.1" xmlns="http://www.w3.org/2000/svg" xmlns:xlink="http://www.w3.org/1999/xlink" xml:space="preserve" xmlns:serif="http://www.serif.com/" style="fill-rule:evenodd;clip-rule:evenodd;stroke-linecap:round;stroke-linejoin:round;stroke-miterlimit:1.5;"><rect id="_2.3-Get-Records" serif:id="2.3 Get Records" x="0" y="0.136" width="55" height="55" style="fill:none;"/><clipPath id="_clip1"><rect x="0" y="0.136" width="55" height="55"/></clipPath><g clip-path="url(#_clip1)"><g><path d="M55,5.636c0,-3.035 -2.464,-5.5 -5.5,-5.5l-44,0c-3.036,0 -5.5,2.465 -5.5,5.5l0,44c0,3.036 2.464,5.5 5.5,5.5l44,0c3.036,0 5.5,-2.464 5.5,-5.5l0,-44Z" style="fill:#eb7092;"/><g><path d="M39.331,18.161c3.272,4.021 2.665,9.943 -1.356,13.216c-4.021,3.273 -9.943,2.665 -13.216,-1.356c-3.273,-4.021 -2.665,-9.943 1.356,-13.216c4.021,-3.273 9.943,-2.665 13.216,1.356Z" style="fill:none;stroke:#fff;stroke-width:4px;"/><path d="M26.337,31.96l-3.156,-3.878l-12.118,9.864l3.156,3.878l12.118,-9.864Z" style="fill:#fff;"/><path d="M23.224,32.227l-1.144,-1.405l-8.467,6.892l1.144,1.405l8.467,-6.892Z" style="fill:#eb7092;"/></g></g></g></svg>