<?xml version="1.0" encoding="UTF-8" standalone="no"?><!DOCTYPE svg PUBLIC "-//W3C//DTD SVG 1.1//EN" "http://www.w3.org/Graphics/SVG/1.1/DTD/svg11.dtd"><svg width="100%" height="100%" viewBox="0 0 55 56" version="1.1" xmlns="http://www.w3.org/2000/svg" xmlns:xlink="http://www.w3.org/1999/xlink" xml:space="preserve" xmlns:serif="http://www.serif.com/" style="fill-rule:evenodd;clip-rule:evenodd;stroke-linejoin:round;stroke-miterlimit:2;"><rect id="_4.2-Pause" serif:id="4.2 Pause" x="0" y="0.745" width="55" height="55" style="fill:none;"/><clipPath id="_clip1"><rect x="0" y="0.745" width="55" height="55"/></clipPath><g clip-path="url(#_clip1)"><g><path d="M55,6.245c0,-3.035 -2.464,-5.5 -5.5,-5.5l-44,0c-3.036,0 -5.5,2.465 -5.5,5.5l0,44c0,3.036 2.464,5.5 5.5,5.5l44,0c3.036,0 5.5,-2.464 5.5,-5.5l0,-44Z" style="fill:#ff9a3d;"/><g><path d="M18,33.384l10.278,-0l0,-3.39l-4.587,0l4.587,-10.202l-10.278,0l0,3.373l4.595,-0l-4.595,10.219Z" style="fill:#fff;fill-rule:nonzero;"/><path d="M30.071,36.698l6.929,0l-0,-2.285l-3.092,-0l3.092,-6.878l-6.929,-0l-0,2.274l3.098,-0l-3.098,6.889Z" style="fill:#fff;fill-rule:nonzero;"/></g></g></g></svg>