<?xml version="1.0" encoding="UTF-8" standalone="no"?><!DOCTYPE svg PUBLIC "-//W3C//DTD SVG 1.1//EN" "http://www.w3.org/Graphics/SVG/1.1/DTD/svg11.dtd"><svg width="100%" height="100%" viewBox="0 0 55 56" version="1.1" xmlns="http://www.w3.org/2000/svg" xmlns:xlink="http://www.w3.org/1999/xlink" xml:space="preserve" xmlns:serif="http://www.serif.com/" style="fill-rule:evenodd;clip-rule:evenodd;stroke-linejoin:round;stroke-miterlimit:2;"><rect id="_1-Workflow-Rule" serif:id="1 Workflow Rule" x="0" y="0.391" width="55" height="55" style="fill:none;"/><clipPath id="_clip1"><rect x="0" y="0.391" width="55" height="55"/></clipPath><g clip-path="url(#_clip1)"><g><g><g><g><path d="M55,5.891c-0,-3.036 -2.464,-5.5 -5.5,-5.5l-44,-0c-3.036,-0 -5.5,2.464 -5.5,5.5l0,44c0,3.035 2.464,5.5 5.5,5.5l44,-0c3.036,-0 5.5,-2.465 5.5,-5.5l-0,-44Z" style="fill:#4d4d4d;"/></g><g><path d="M39.965,25.976c-0.06,-0.395 -0.332,-0.724 -0.707,-0.857l-1.989,-0.707c-0.118,-0.333 -0.251,-0.657 -0.399,-0.971l0.905,-1.905c0.171,-0.359 0.13,-0.784 -0.106,-1.105c-0.763,-1.038 -1.674,-1.949 -2.709,-2.709c-0.322,-0.236 -0.745,-0.276 -1.105,-0.105l-1.904,0.905c-0.313,-0.148 -0.638,-0.281 -0.971,-0.399l-0.708,-1.99c-0.133,-0.374 -0.461,-0.646 -0.855,-0.706c-1.398,-0.215 -2.433,-0.215 -3.834,-0c-0.393,0.06 -0.722,0.332 -0.855,0.706l-0.707,1.99c-0.334,0.118 -0.658,0.251 -0.971,0.399l-1.905,-0.905c-0.359,-0.171 -0.783,-0.131 -1.105,0.105c-1.035,0.76 -1.946,1.671 -2.709,2.709c-0.236,0.321 -0.277,0.746 -0.106,1.105l0.905,1.905c-0.147,0.313 -0.281,0.638 -0.399,0.971l-1.989,0.708c-0.375,0.133 -0.647,0.462 -0.707,0.856c-0.109,0.713 -0.159,1.321 -0.159,1.915c-0,0.594 0.05,1.203 0.159,1.916c0.06,0.394 0.332,0.724 0.707,0.857l1.989,0.707c0.118,0.334 0.252,0.658 0.399,0.971l-0.905,1.905c-0.171,0.359 -0.13,0.784 0.106,1.104c0.762,1.037 1.673,1.949 2.709,2.71c0.322,0.236 0.746,0.277 1.105,0.105l1.904,-0.905c0.314,0.148 0.638,0.281 0.972,0.399l0.707,1.989c0.133,0.375 0.462,0.646 0.855,0.707c0.7,0.108 1.327,0.16 1.917,0.16c0.59,-0 1.217,-0.052 1.917,-0.16c0.393,-0.061 0.722,-0.332 0.855,-0.707l0.707,-1.989c0.334,-0.118 0.658,-0.251 0.972,-0.399l1.904,0.905c0.36,0.172 0.784,0.131 1.105,-0.105c1.037,-0.762 1.949,-1.674 2.709,-2.71c0.236,-0.32 0.277,-0.745 0.106,-1.104l-0.905,-1.905c0.147,-0.313 0.281,-0.638 0.399,-0.971l1.989,-0.707c0.375,-0.133 0.647,-0.462 0.707,-0.857c0.109,-0.713 0.159,-1.322 0.159,-1.916c0,-0.594 -0.05,-1.202 -0.159,-1.915Zm-2.057,2.871l-1.866,0.663c-0.326,0.116 -0.577,0.381 -0.675,0.713c-0.167,0.564 -0.386,1.097 -0.653,1.586c-0.165,0.304 -0.176,0.669 -0.027,0.982l0.846,1.78c-0.409,0.491 -0.861,0.944 -1.353,1.353l-1.78,-0.846c-0.313,-0.15 -0.677,-0.138 -0.981,0.027c-0.49,0.266 -1.024,0.486 -1.588,0.653c-0.331,0.097 -0.596,0.348 -0.712,0.674l-0.664,1.867c-0.678,0.069 -1.232,0.069 -1.91,0l-0.664,-1.867c-0.116,-0.325 -0.381,-0.577 -0.712,-0.674c-0.565,-0.167 -1.099,-0.387 -1.588,-0.653c-0.304,-0.166 -0.669,-0.177 -0.981,-0.027l-1.78,0.846c-0.492,-0.409 -0.944,-0.861 -1.353,-1.353l0.846,-1.78c0.149,-0.313 0.139,-0.678 -0.027,-0.982c-0.266,-0.488 -0.485,-1.022 -0.653,-1.587c-0.098,-0.331 -0.349,-0.596 -0.675,-0.712l-1.866,-0.663c-0.035,-0.34 -0.052,-0.653 -0.052,-0.956c-0,-0.303 0.017,-0.615 0.052,-0.954l1.867,-0.664c0.325,-0.116 0.576,-0.381 0.674,-0.713c0.167,-0.563 0.387,-1.097 0.653,-1.587c0.166,-0.303 0.176,-0.669 0.027,-0.981l-0.846,-1.78c0.409,-0.492 0.862,-0.945 1.353,-1.354l1.78,0.846c0.312,0.151 0.678,0.139 0.982,-0.026c0.489,-0.267 1.022,-0.486 1.587,-0.653c0.331,-0.098 0.596,-0.349 0.712,-0.675l0.664,-1.866c0.671,-0.07 1.227,-0.07 1.91,-0l0.664,1.866c0.116,0.326 0.381,0.577 0.712,0.675c0.565,0.167 1.099,0.386 1.588,0.653c0.304,0.166 0.668,0.176 0.981,0.026l1.78,-0.846c0.491,0.409 0.944,0.862 1.353,1.354l-0.846,1.78c-0.149,0.312 -0.138,0.678 0.027,0.981c0.267,0.491 0.486,1.025 0.653,1.587c0.098,0.332 0.349,0.597 0.675,0.713l1.866,0.663c0.035,0.34 0.052,0.653 0.052,0.955c0,0.303 -0.017,0.616 -0.052,0.956Z" style="fill:#fff;fill-rule:nonzero;"/><path d="M27.5,22.627c-2.762,0 -5.01,2.248 -5.01,5.01c0,2.762 2.248,5.01 5.01,5.01c2.762,-0 5.01,-2.248 5.01,-5.01c-0,-2.762 -2.248,-5.01 -5.01,-5.01Zm0,7.855c-1.569,0 -2.845,-1.276 -2.845,-2.845c-0,-1.569 1.276,-2.845 2.845,-2.845c1.569,-0 2.845,1.276 2.845,2.845c0,1.569 -1.276,2.845 -2.845,2.845Z" style="fill:#fff;fill-rule:nonzero;"/></g></g></g></g></g></svg>