<?xml version="1.0" encoding="UTF-8" standalone="no"?><!DOCTYPE svg PUBLIC "-//W3C//DTD SVG 1.1//EN" "http://www.w3.org/Graphics/SVG/1.1/DTD/svg11.dtd"><svg width="100%" height="100%" viewBox="0 0 55 55" version="1.1" xmlns="http://www.w3.org/2000/svg" xmlns:xlink="http://www.w3.org/1999/xlink" xml:space="preserve" xmlns:serif="http://www.serif.com/" style="fill-rule:evenodd;clip-rule:evenodd;stroke-linejoin:round;stroke-miterlimit:2;"><rect id="_2-Assignment-Rule" serif:id="2 Assignment Rule" x="0" y="0" width="55" height="55" style="fill:none;"/><clipPath id="_clip1"><rect x="0" y="0" width="55" height="55"/></clipPath><g clip-path="url(#_clip1)"><g><g><g><g><path d="M55,5.5c-0,-3.036 -2.464,-5.5 -5.5,-5.5l-44,0c-3.036,0 -5.5,2.464 -5.5,5.5l-0,44c-0,3.036 2.464,5.5 5.5,5.5l44,-0c3.036,-0 5.5,-2.464 5.5,-5.5l-0,-44Z" style="fill:#4d4d4d;"/></g></g></g></g><g><g><path d="M27.5,26.889c-2.864,0 -5.195,-2.33 -5.195,-5.194c0,-2.865 2.331,-5.195 5.195,-5.195c2.864,-0 5.195,2.33 5.195,5.195c-0,2.864 -2.331,5.194 -5.195,5.194Zm-0,-8.557c-1.854,-0 -3.363,1.508 -3.363,3.363c0,1.854 1.509,3.363 3.363,3.363c1.854,-0 3.363,-1.509 3.363,-3.363c-0,-1.855 -1.509,-3.363 -3.363,-3.363Z" style="fill:#fff;fill-rule:nonzero;"/></g><g><path d="M37.584,38.5l-20.168,0c-0.507,0 -0.916,-0.409 -0.916,-0.916c-0,-2.995 1.167,-5.801 3.282,-7.902c1.365,-1.356 3.291,-2.133 5.28,-2.133l4.876,0c1.993,0 3.915,0.777 5.28,2.133c2.115,2.101 3.282,4.907 3.282,7.902c-0,0.507 -0.409,0.916 -0.916,0.916Zm-19.207,-1.832l18.246,0c-0.206,-2.155 -1.149,-4.148 -2.698,-5.684c-1.024,-1.015 -2.478,-1.598 -3.987,-1.598l-4.876,-0c-1.513,-0 -2.963,0.583 -3.987,1.598c-1.549,1.536 -2.492,3.529 -2.698,5.684Z" style="fill:#fff;fill-rule:nonzero;"/></g></g></g></svg>