<?xml version="1.0" encoding="UTF-8" standalone="no"?><!DOCTYPE svg PUBLIC "-//W3C//DTD SVG 1.1//EN" "http://www.w3.org/Graphics/SVG/1.1/DTD/svg11.dtd"><svg width="100%" height="100%" viewBox="0 0 74 74" version="1.1" xmlns="http://www.w3.org/2000/svg" xmlns:xlink="http://www.w3.org/1999/xlink" xml:space="preserve" xmlns:serif="http://www.serif.com/" style="fill-rule:evenodd;clip-rule:evenodd;stroke-linejoin:round;stroke-miterlimit:2;"><rect id="_2-Process-Builder" serif:id="2 Process Builder" x="0" y="0" width="73.782" height="73.782" style="fill:none;"/><clipPath id="_clip1"><rect x="0" y="0" width="73.782" height="73.782"/></clipPath><g clip-path="url(#_clip1)"><g><g><g><path d="M71.502,40.389c2.146,-2.146 2.146,-5.632 -0,-7.778l-31.113,-31.113c-2.146,-2.146 -5.632,-2.146 -7.778,0l-31.113,31.113c-2.146,2.146 -2.146,5.632 0,7.778l31.113,31.113c2.146,2.146 5.632,2.146 7.778,-0l31.113,-31.113Z" style="fill:#0071d2;"/></g><path d="M49.836,39.334l-5.668,5.668l-0,-4.534l-17.004,-0l0,-12.47l2.267,0l0,10.202l14.737,0l-0,-4.534l5.668,5.668Z" style="fill:#fff;fill-rule:nonzero;"/></g></g></g></svg>