<?xml version="1.0" encoding="UTF-8" standalone="no"?><!DOCTYPE svg PUBLIC "-//W3C//DTD SVG 1.1//EN" "http://www.w3.org/Graphics/SVG/1.1/DTD/svg11.dtd"><svg width="100%" height="100%" viewBox="0 0 55 56" version="1.1" xmlns="http://www.w3.org/2000/svg" xmlns:xlink="http://www.w3.org/1999/xlink" xml:space="preserve" xmlns:serif="http://www.serif.com/" style="fill-rule:evenodd;clip-rule:evenodd;stroke-linejoin:round;stroke-miterlimit:2;"><rect id="_3-Flow" serif:id="3 Flow" x="0" y="0.391" width="55" height="55" style="fill:none;"/><clipPath id="_clip1"><rect x="0" y="0.391" width="55" height="55"/></clipPath><g clip-path="url(#_clip1)"><g><g><path d="M55,5.891c-0,-3.036 -2.464,-5.5 -5.5,-5.5l-44,-0c-3.036,-0 -5.5,2.464 -5.5,5.5l0,44c0,3.035 2.464,5.5 5.5,5.5l44,-0c3.036,-0 5.5,-2.465 5.5,-5.5l-0,-44Z" style="fill:#eb7092;"/><path d="M15.354,22.418c0.979,-0.901 1.976,-1.596 2.993,-2.085c1.017,-0.489 2.123,-0.733 3.319,-0.733c1.428,-0 3.435,0.582 6.02,1.746c2.585,1.165 4.429,1.747 5.532,1.747c1.304,0 2.511,-0.338 3.621,-1.013c1.11,-0.675 2.046,-1.463 2.807,-2.364l-0,3.983c-0.885,0.729 -1.732,1.296 -2.539,1.7c-1.258,0.636 -2.531,0.955 -3.819,0.955c-1.538,-0 -3.575,-0.583 -6.114,-1.747c-2.539,-1.164 -4.398,-1.747 -5.578,-1.747c-1.366,0 -2.616,0.373 -3.75,1.118c-0.683,0.45 -1.513,1.203 -2.492,2.259l0,-3.819Zm0,9.828c0.979,-0.9 1.976,-1.595 2.993,-2.084c1.017,-0.489 2.123,-0.734 3.319,-0.734c1.428,0 3.435,0.582 6.02,1.747c2.585,1.164 4.429,1.746 5.532,1.746c1.304,0 2.511,-0.337 3.621,-1.013c1.11,-0.675 2.046,-1.463 2.807,-2.364l-0,3.983c-0.901,0.745 -1.871,1.374 -2.912,1.886c-1.04,0.513 -2.189,0.769 -3.446,0.769c-1.538,0 -3.572,-0.582 -6.102,-1.747c-2.531,-1.164 -4.394,-1.746 -5.59,-1.746c-1.366,-0 -2.601,0.364 -3.703,1.094c-0.683,0.435 -1.529,1.196 -2.539,2.283l0,-3.82Z" style="fill:#fff;fill-rule:nonzero;"/></g></g></g></svg>