<?xml version="1.0" encoding="UTF-8" standalone="no"?><!DOCTYPE svg PUBLIC "-//W3C//DTD SVG 1.1//EN" "http://www.w3.org/Graphics/SVG/1.1/DTD/svg11.dtd"><svg width="100%" height="100%" viewBox="0 0 55 56" version="1.1" xmlns="http://www.w3.org/2000/svg" xmlns:xlink="http://www.w3.org/1999/xlink" xml:space="preserve" xmlns:serif="http://www.serif.com/" style="fill-rule:evenodd;clip-rule:evenodd;stroke-linejoin:round;stroke-miterlimit:2;"><rect id="_4-Apex-Trigger" serif:id="4 Apex Trigger" x="0" y="0.391" width="55" height="55" style="fill:none;"/><g><g><g><g><path d="M55,5.891c-0,-3.036 -2.464,-5.5 -5.5,-5.5l-44,-0c-3.036,-0 -5.5,2.464 -5.5,5.5l0,44c0,3.035 2.464,5.5 5.5,5.5l44,-0c3.036,-0 5.5,-2.465 5.5,-5.5l-0,-44Z" style="fill:#91cd86;"/></g><g><path d="M41.254,16.026l-27.508,0c-0.484,0 -0.879,0.396 -0.879,0.879c-0,0.483 0.395,0.879 0.879,0.879l27.508,-0c0.484,-0 0.879,-0.396 0.879,-0.879c0,-0.483 -0.395,-0.879 -0.879,-0.879Z" style="fill:#fff;fill-rule:nonzero;"/></g><g><path d="M33.081,23.321l-19.335,-0c-0.484,-0 -0.879,0.395 -0.879,0.879c-0,0.483 0.395,0.878 0.879,0.878l19.335,0c0.483,0 0.879,-0.395 0.879,-0.878c-0,-0.484 -0.396,-0.879 -0.879,-0.879Z" style="fill:#fff;fill-rule:nonzero;"/></g><g><path d="M41.254,30.703l-27.508,0c-0.484,0 -0.879,0.396 -0.879,0.879c-0,0.484 0.395,0.879 0.879,0.879l27.508,0c0.484,0 0.879,-0.395 0.879,-0.879c0,-0.483 -0.395,-0.879 -0.879,-0.879Z" style="fill:#fff;fill-rule:nonzero;"/></g><g><path d="M26.138,37.998l-12.392,-0c-0.484,-0 -0.879,0.395 -0.879,0.879c-0,0.483 0.395,0.879 0.879,0.879l12.392,-0c0.483,-0 0.879,-0.396 0.879,-0.879c-0,-0.484 -0.396,-0.879 -0.879,-0.879Z" style="fill:#fff;fill-rule:nonzero;"/></g></g></g></g></svg>