<?xml version="1.0" encoding="UTF-8" standalone="no"?><!DOCTYPE svg PUBLIC "-//W3C//DTD SVG 1.1//EN" "http://www.w3.org/Graphics/SVG/1.1/DTD/svg11.dtd"><svg width="100%" height="100%" viewBox="0 0 55 56" version="1.1" xmlns="http://www.w3.org/2000/svg" xmlns:xlink="http://www.w3.org/1999/xlink" xml:space="preserve" xmlns:serif="http://www.serif.com/" style="fill-rule:evenodd;clip-rule:evenodd;stroke-linejoin:round;stroke-miterlimit:2;"><rect id="_5.1-Action" serif:id="5.1 Action" x="0" y="0.136" width="55" height="55" style="fill:none;"/><clipPath id="_clip1"><rect x="0" y="0.136" width="55" height="55"/></clipPath><g clip-path="url(#_clip1)"><g><path d="M55,5.636c-0,-3.035 -2.464,-5.5 -5.5,-5.5l-44,0c-3.036,0 -5.5,2.465 -5.5,5.5l0,44c0,3.036 2.464,5.5 5.5,5.5l44,0c3.036,0 5.5,-2.464 5.5,-5.5l-0,-44Z" style="fill:#54698d;"/><path d="M31.46,14.535c0.006,0.022 0.058,0.012 0.155,-0.029c0.096,-0.041 0.199,-0.09 0.309,-0.146c0.13,-0.063 0.285,-0.139 0.465,-0.228l-6.29,11.76l8.767,-0.492c-0.177,0.25 -0.334,0.47 -0.472,0.661c-0.122,0.164 -0.232,0.315 -0.328,0.453c-0.096,0.139 -0.14,0.218 -0.134,0.24c0.003,0.01 -0.146,0.219 -0.447,0.627c-0.302,0.408 -0.703,0.941 -1.204,1.599c-0.502,0.659 -1.067,1.408 -1.697,2.249c-0.629,0.841 -1.278,1.697 -1.945,2.566c-1.561,2.05 -3.33,4.382 -5.307,6.995c-0.127,0.073 -0.245,0.137 -0.355,0.194c-0.088,0.05 -0.171,0.089 -0.248,0.118c-0.078,0.03 -0.12,0.034 -0.126,0.013c-0.003,-0.011 0.088,-0.194 0.273,-0.549c0.185,-0.355 0.431,-0.824 0.737,-1.405c0.306,-0.582 0.654,-1.243 1.045,-1.982c0.39,-0.74 0.789,-1.499 1.196,-2.278c0.956,-1.809 2.043,-3.87 3.26,-6.183l-9.156,0.404c2.147,-2.734 4.061,-5.173 5.744,-7.317c0.723,-0.91 1.429,-1.803 2.117,-2.679c0.688,-0.876 1.302,-1.655 1.842,-2.336c0.541,-0.682 0.975,-1.231 1.302,-1.647c0.328,-0.415 0.494,-0.618 0.497,-0.608Z" style="fill:#fff;fill-rule:nonzero;"/></g></g></svg>